<?xml version="1.0" encoding="UTF-8"?>
<svg version="1.1" xmlns="http://www.w3.org/2000/svg" width="509" height="509">
<path d="M0 0 C2.95239258 1.34423828 2.95239258 1.34423828 5.89453125 3.0703125 C7.0016748 3.71186279 8.10881836 4.35341309 9.24951172 5.0144043 C10.43728423 5.71775089 11.62494411 6.42128771 12.8125 7.125 C14.0568118 7.85111864 15.30177765 8.57611751 16.54736328 9.30004883 C19.11144949 10.79210832 21.67199501 12.28998723 24.22998047 13.79248047 C28.84938069 16.50258574 33.49500207 19.16596874 38.14135742 21.82958984 C41.34764311 23.67178192 44.54546937 25.52798403 47.7421875 27.38671875 C51.95221209 29.83127038 56.18717289 32.22237159 60.4453125 34.58203125 C62.46362088 35.72121383 64.48185352 36.86053062 66.5 38 C67.43247559 38.50362061 68.36495117 39.00724121 69.32568359 39.52612305 C70.17727051 40.01250244 71.02885742 40.49888184 71.90625 41 C73.02483398 41.61875 73.02483398 41.61875 74.16601562 42.25 C77.57334426 45.50129548 77.93697045 50.03492917 78.23377991 54.57949829 C78.22259377 56.47881607 78.22259377 56.47881607 78.21118164 58.41650391 C78.2098674 59.12150528 78.20855316 59.82650665 78.2071991 60.5528717 C78.2007586 62.86091033 78.18035214 65.16860705 78.16015625 67.4765625 C78.1538779 69.09125407 78.14864045 70.70595 78.14439392 72.32064819 C78.13113852 76.55691695 78.10672678 80.79303946 78.07904053 85.02923584 C78.03579606 91.81574461 78.00615312 98.60229293 77.9829998 105.38889694 C77.97280876 107.75367433 77.9557584 110.11833162 77.93800354 112.48306274 C77.93117363 113.9361358 77.92456494 115.38920993 77.91821289 116.84228516 C77.90995987 118.10690582 77.90170685 119.37152649 77.89320374 120.67446899 C77.98770751 123.61722383 78.18492301 126.17488129 79 129 C81.04052503 130.74615341 81.04052503 130.74615341 83.72265625 132.05859375 C84.72409668 132.60217529 85.72553711 133.14575684 86.75732422 133.70581055 C87.84803223 134.27726807 88.93874023 134.84872559 90.0625 135.4375 C92.35919941 136.68021201 94.65474437 137.92505961 96.94921875 139.171875 C97.53656799 139.48839523 98.12391724 139.80491547 98.72906494 140.13102722 C104.69088619 143.34858538 110.53720447 146.75154307 116.375 150.1875 C122.1183763 153.56212852 127.86148275 156.93289036 133.65625 160.21875 C134.53877441 160.72124268 135.42129883 161.22373535 136.33056641 161.74145508 C137.98068271 162.67924426 139.63383972 163.61171088 141.29052734 164.5378418 C142.38034912 165.15912964 142.38034912 165.15912964 143.4921875 165.79296875 C144.12495605 166.1489917 144.75772461 166.50501465 145.40966797 166.87182617 C147 168 147 168 149 171 C149.22610088 173.98735643 149.33527973 176.8842902 149.35400391 179.87426758 C149.3671463 180.78190353 149.3802887 181.68953949 149.39382935 182.62467957 C149.4332829 185.6313001 149.45661578 188.63772102 149.4765625 191.64453125 C149.48471355 192.67135199 149.49286461 193.69817272 149.50126266 194.75610924 C149.54297703 200.19001842 149.57158426 205.62382667 149.59033203 211.05786133 C149.61247204 216.67076012 149.68128169 222.28207535 149.76067543 227.89441395 C149.8129605 232.2104538 149.82971102 236.52611476 149.83689499 240.84244347 C149.84663818 242.9113708 149.86989986 244.98028057 149.90697098 247.0488987 C149.95567212 249.94639296 149.95384729 252.83977074 149.93994141 255.73754883 C149.97837158 257.01657578 149.97837158 257.01657578 150.01757812 258.32144165 C149.95393204 261.96415327 149.82786915 264.12370328 147.26377296 266.83779049 C145.23587004 268.38103096 143.20110374 269.71890271 141 271 C139.98824707 271.63091553 138.97649414 272.26183105 137.93408203 272.91186523 C136.96841309 273.45528564 136.00274414 273.99870605 135.0078125 274.55859375 C133.90268311 275.18475586 132.79755371 275.81091797 131.65893555 276.45605469 C130.48097179 277.11656278 129.30299292 277.77704393 128.125 278.4375 C126.2671159 279.48745336 124.41035549 280.53937699 122.55357361 281.59127808 C121.28218888 282.31127943 120.01042722 283.03061559 118.73829651 283.7492981 C112.03008653 287.5403499 105.35764755 291.39249034 98.6875 295.25 C96.58731027 296.46366399 94.48705435 297.67721346 92.38671875 298.890625 C91.45263184 299.43525391 90.51854492 299.97988281 89.55615234 300.54101562 C87.98620912 301.43709783 86.40050714 302.30697004 84.79150391 303.13085938 C82.12458635 304.50653577 80.29648726 305.45837259 78.83108521 308.13539124 C77.79576877 311.70395016 77.75427384 315.04545374 77.80810547 318.72436523 C77.81091019 319.48598969 77.8137149 320.24761414 77.81660461 321.03231812 C77.82308481 322.68014449 77.83365143 324.32795881 77.84786606 325.97573662 C77.86739647 328.58652892 77.86952622 331.19677486 77.86599731 333.80763245 C77.85632188 341.2285376 77.85597718 348.64890366 77.92089844 356.06958008 C77.95939391 360.61451861 77.95899821 365.15804055 77.93332291 369.70305061 C77.93091142 371.43139777 77.94296021 373.15982929 77.96990585 374.88796806 C78.17127754 388.34969086 78.17127754 388.34969086 75.36746216 392.30021667 C73.30940053 393.88870806 71.37319895 394.95298037 69 396 C67.98824707 396.63091553 66.97649414 397.26183105 65.93408203 397.91186523 C64.96841309 398.45528564 64.00274414 398.99870605 63.0078125 399.55859375 C61.90356934 400.18427246 60.79932617 400.80995117 59.66162109 401.45458984 C58.48276946 402.11559925 57.3038952 402.7765683 56.125 403.4375 C54.25553734 404.49377525 52.38718233 405.55199292 50.51882935 406.61022949 C49.24240504 407.33297015 47.96560828 408.0550534 46.68844604 408.77648926 C41.32513292 411.80757444 35.98893835 414.88337318 30.65917969 417.97314453 C27.43387819 419.84090387 24.20183085 421.69652898 20.96875 423.55078125 C17.16943848 425.73319627 13.40176976 427.95710722 9.65625 430.23046875 C8.06256241 431.17458452 6.46881671 432.11860221 4.875 433.0625 C4.18325684 433.49868652 3.49151367 433.93487305 2.77880859 434.38427734 C-0.84339887 436.49596247 -2.51759351 437.04646128 -6.8125 436.6328125 C-12.2230609 434.83476272 -17.02647082 431.75490664 -21.875 428.8125 C-24.00472089 427.54475369 -26.13494759 426.27785679 -28.265625 425.01171875 C-29.36712891 424.35349121 -30.46863281 423.69526367 -31.60351562 423.01708984 C-38.34261955 419.01489917 -45.14456925 415.1207303 -51.94384766 411.22192383 C-56.50337664 408.60521411 -61.05540173 405.98732777 -65.5390625 403.2421875 C-66.50465088 402.65993408 -66.50465088 402.65993408 -67.48974609 402.06591797 C-69.08897157 401.09751042 -70.67791649 400.11217628 -72.265625 399.125 C-75.77713873 397.68026292 -77.37851007 397.89343363 -81 399 C-83.51028511 400.30141509 -85.85696584 401.63650706 -88.25 403.125 C-89.75951882 404.03794454 -91.27000075 404.94929781 -92.78125 405.859375 C-93.60882813 406.36017578 -94.43640625 406.86097656 -95.2890625 407.37695312 C-101.50906007 411.10088539 -107.80985354 414.68826973 -114.09790039 418.2956543 C-119.45210134 421.36899301 -124.79109175 424.4607501 -130.08984375 427.62890625 C-131.03698242 428.18852051 -131.98412109 428.74813477 -132.95996094 429.32470703 C-134.72696115 430.36953369 -136.48725055 431.42582836 -138.23925781 432.49560547 C-142.98378044 435.27950968 -146.36260324 436.98179382 -152 436 C-155.14252829 434.72189484 -158.01422281 433.08914077 -160.9375 431.375 C-161.80375 430.88281982 -162.67 430.39063965 -163.5625 429.88354492 C-166.3851797 428.27270024 -169.19352939 426.63890227 -172 425 C-173.88671484 423.90494117 -175.77343361 422.80988913 -177.66015625 421.71484375 C-180.6017158 420.00385066 -183.54056606 418.28865054 -186.47412109 416.56396484 C-192.1223887 413.24437689 -197.79402333 409.97371528 -203.50390625 406.76171875 C-204.77477188 406.04457221 -206.04560537 405.3273687 -207.31640625 404.61010742 C-209.16774278 403.56549737 -211.02027875 402.52348614 -212.87792969 401.49014282 C-214.60086932 400.53159134 -216.31810489 399.56280962 -218.03515625 398.59375 C-219.0187915 398.04396484 -220.00242676 397.49417969 -221.01586914 396.92773438 C-222.00063232 396.29158203 -222.98539551 395.65542969 -224 395 C-224.94389587 394.5430072 -224.94389587 394.5430072 -225.90686035 394.07678223 C-228.35412631 392.59200948 -229.52002214 391.47646865 -231 389 C-231.8268002 383.82682137 -231.78103567 378.77545345 -231.65021896 373.54814148 C-231.58514397 370.87363687 -231.56577971 368.20222601 -231.5585022 365.52697754 C-231.53214044 358.88745396 -231.43796876 352.24937362 -231.32647705 345.61077881 C-231.23258832 339.99423339 -231.17391555 334.37972853 -231.16649246 328.76237488 C-231.14869345 326.1315802 -231.07864101 323.50541849 -231.00741577 320.87561035 C-230.65986364 312.77736285 -230.65986364 312.77736285 -233.86509705 305.66622925 C-236.18992195 304.08549086 -238.38663455 303.01967723 -241 302 C-241.97815674 301.40461426 -242.95631348 300.80922852 -243.96411133 300.19580078 C-244.8280249 299.70063965 -245.69193848 299.20547852 -246.58203125 298.6953125 C-247.58322998 298.11958496 -248.58442871 297.54385742 -249.6159668 296.95068359 C-250.67082275 296.34820801 -251.72567871 295.74573242 -252.8125 295.125 C-253.9260083 294.4851416 -255.0395166 293.8452832 -256.18676758 293.18603516 C-261.70045053 290.01890581 -267.22432662 286.86989533 -272.75502014 283.73257446 C-275.28735961 282.29586556 -277.81835587 280.85679718 -280.34945679 279.41790771 C-282.14697152 278.3979959 -283.94703706 277.38270087 -285.74731445 276.36767578 C-301.20437024 267.59125952 -301.20437024 267.59125952 -303 264 C-303.13516801 261.10328882 -303.20998978 258.22938389 -303.24047852 255.33105469 C-303.25997307 253.98445015 -303.25997307 253.98445015 -303.27986145 252.61064148 C-303.40656584 243.22255659 -303.46331674 233.83357185 -303.51489258 224.44482422 C-303.54165649 219.98826644 -303.59041185 215.53277543 -303.65844727 211.07666016 C-303.74034538 205.69906852 -303.78306852 200.32249446 -303.79795647 194.94431305 C-303.81021318 192.89490206 -303.83626663 190.84552517 -303.87640572 188.79647064 C-303.92983594 185.92527812 -303.9328783 183.05810731 -303.92407227 180.18652344 C-303.95126343 179.3416185 -303.97845459 178.49671356 -304.00646973 177.62620544 C-303.94898451 173.98616508 -303.81982311 171.86292693 -301.24973106 169.15770721 C-299.22598211 167.61943007 -297.1949943 166.2789691 -295 165 C-294.12923828 164.45472656 -293.25847656 163.90945312 -292.36132812 163.34765625 C-291.20793945 162.71150391 -291.20793945 162.71150391 -290.03125 162.0625 C-289.14236084 161.56709717 -288.25347168 161.07169434 -287.33764648 160.5612793 C-285.93301147 159.78844604 -285.93301147 159.78844604 -284.5 159 C-282.45880165 157.86217152 -280.41846505 156.72279601 -278.37890625 155.58203125 C-276.80713623 154.70345459 -276.80713623 154.70345459 -275.20361328 153.80712891 C-268.89303049 150.24738696 -262.65063385 146.57065159 -256.39990234 142.90722656 C-249.7726136 139.02563883 -243.11628421 135.20376002 -236.4140625 131.453125 C-233.92818607 130.0889537 -233.92818607 130.0889537 -232 128 C-231.80359382 125.46722275 -231.73037358 123.04233792 -231.74462891 120.50854492 C-231.74100845 119.73599869 -231.737388 118.96345245 -231.73365784 118.16749573 C-231.72675524 116.48690664 -231.72426001 114.80629509 -231.72560501 113.12569237 C-231.72656809 110.46501317 -231.71365351 107.80474041 -231.69662476 105.14411926 C-231.65028999 97.57845233 -231.62574972 90.01282532 -231.61914062 82.44702148 C-231.61412511 77.82151593 -231.58987023 73.19643236 -231.55381393 68.57106972 C-231.54401375 66.80847012 -231.54168519 65.04581246 -231.54698563 63.28319359 C-231.55405829 60.81488388 -231.5367701 58.34782976 -231.51416016 55.87963867 C-231.52641884 54.78922775 -231.52641884 54.78922775 -231.53892517 53.67678833 C-231.4601502 48.83761575 -230.41586377 46.40708509 -227 43 C-224.57177734 41.29345703 -224.57177734 41.29345703 -221.8359375 39.7578125 C-220.80944092 39.17427002 -219.78294434 38.59072754 -218.7253418 37.98950195 C-217.619729 37.37421631 -216.51411621 36.75893066 -215.375 36.125 C-214.21138358 35.46747161 -213.04838922 34.80884127 -211.88598633 34.14916992 C-209.46850764 32.77831701 -207.04841773 31.41224759 -204.62646484 30.04931641 C-198.95309584 26.85076593 -193.32337364 23.57648684 -187.6875 20.3125 C-179.46759136 15.56713941 -171.23933182 10.83655756 -163 6.125 C-162.11530029 5.61880127 -161.23060059 5.11260254 -160.3190918 4.59106445 C-159.5125415 4.13046631 -158.70599121 3.66986816 -157.875 3.1953125 C-156.81925781 2.59227295 -156.81925781 2.59227295 -155.7421875 1.97705078 C-151.90930147 -0.17250218 -149.46391491 -0.36936531 -145 0 C-142.1754271 1.08087284 -139.65379052 2.57536163 -137.0625 4.125 C-136.29526611 4.56730957 -135.52803223 5.00961914 -134.73754883 5.46533203 C-132.14956927 6.96227295 -129.5750237 8.48089445 -127 10 C-125.07624371 11.12103308 -123.15174072 12.24078559 -121.2265625 13.359375 C-117.1771542 15.71485499 -113.13215572 18.07767725 -109.08984375 20.4453125 C-103.1615562 23.91242507 -97.21185948 27.3409844 -91.25 30.75 C-90.37496826 31.25128418 -89.49993652 31.75256836 -88.59838867 32.26904297 C-87.78732666 32.73197754 -86.97626465 33.19491211 -86.140625 33.671875 C-85.08149902 34.27660645 -85.08149902 34.27660645 -84.00097656 34.89355469 C-83.3406543 35.25868164 -82.68033203 35.62380859 -82 36 C-81.35772461 36.39864258 -80.71544922 36.79728516 -80.05371094 37.20800781 C-77.28453247 38.27591259 -75.81514305 37.87112933 -73 37 C-70.58849653 35.85251119 -70.58849653 35.85251119 -68.17578125 34.3671875 C-67.2425 33.81571045 -66.30921875 33.2642334 -65.34765625 32.69604492 C-64.34605469 32.0951001 -63.34445312 31.49415527 -62.3125 30.875 C-60.15275416 29.59696244 -57.99258279 28.31964377 -55.83203125 27.04296875 C-54.71135254 26.3782959 -53.59067383 25.71362305 -52.43603516 25.02880859 C-44.65637891 20.43530686 -36.81802474 15.94295719 -28.98046875 11.44921875 C-25.31239602 9.3446439 -21.66843867 7.20953934 -18.05078125 5.01953125 C-17.32246094 4.58680908 -16.59414063 4.15408691 -15.84375 3.70825195 C-14.54684016 2.93680883 -13.25803319 2.15146323 -11.98046875 1.34838867 C-7.56201172 -1.24606776 -4.92176922 -1.042203 0 0 Z M-154.48046875 25.3515625 C-155.83942261 26.12439575 -155.83942261 26.12439575 -157.22583008 26.9128418 C-158.20318115 27.477854 -159.18053223 28.04286621 -160.1875 28.625 C-161.69703247 29.48895386 -161.69703247 29.48895386 -163.23706055 30.37036133 C-166.49575111 32.23940873 -169.74817245 34.11904092 -173 36 C-174.12180664 36.64598145 -175.24361328 37.29196289 -176.39941406 37.95751953 C-179.70661153 39.86265965 -183.0103824 41.77357047 -186.3125 43.6875 C-187.34979248 44.2870752 -188.38708496 44.88665039 -189.45581055 45.50439453 C-190.41527588 46.06368652 -191.37474121 46.62297852 -192.36328125 47.19921875 C-193.63619019 47.93918091 -193.63619019 47.93918091 -194.93481445 48.6940918 C-197.11046768 49.96398275 -197.11046768 49.96398275 -199 52 C-189.32080484 58.1327694 -179.40629632 63.84398572 -169.46728516 69.54321289 C-168.39140137 70.16059326 -167.31551758 70.77797363 -166.20703125 71.4140625 C-165.16111816 72.0112207 -164.11520508 72.60837891 -163.03759766 73.22363281 C-159.33181351 75.39075108 -155.71837333 77.69192703 -152.12768555 80.04443359 C-150.07102752 81.18529111 -150.07102752 81.18529111 -147.93969727 80.7668457 C-144.54835681 79.42610305 -141.41685791 77.60513351 -138.25 75.8125 C-137.48083252 75.38122803 -136.71166504 74.94995605 -135.91918945 74.50561523 C-123.51390127 67.51518829 -111.2009397 60.3413244 -99 53 C-100.21583925 49.35248225 -101.00287997 49.14744257 -104.28515625 47.35546875 C-105.19749023 46.84975342 -106.10982422 46.34403809 -107.04980469 45.82299805 C-108.04399414 45.28328369 -109.03818359 44.74356934 -110.0625 44.1875 C-112.15338607 43.03313593 -114.24319407 41.87681744 -116.33203125 40.71875 C-117.42209473 40.11546875 -118.5121582 39.5121875 -119.63525391 38.890625 C-126.28277455 35.15543418 -132.82736647 31.23882856 -139.36743164 27.3190918 C-140.80203735 26.47084839 -140.80203735 26.47084839 -142.265625 25.60546875 C-143.10899414 25.10168701 -143.95236328 24.59790527 -144.82128906 24.07885742 C-148.7791274 22.11900897 -150.89831614 23.29932916 -154.48046875 25.3515625 Z M-12.40234375 25.82421875 C-13.44793457 26.43515381 -14.49352539 27.04608887 -15.57080078 27.67553711 C-16.68181152 28.33948486 -17.79282227 29.00343262 -18.9375 29.6875 C-20.09042056 30.36627211 -21.24391039 31.04407817 -22.39794922 31.72094727 C-25.35608062 33.45926164 -28.30659278 35.2100928 -31.25543213 36.96411133 C-34.03418795 38.61407962 -36.82006806 40.25190684 -39.60546875 41.890625 C-44.74359124 44.91599648 -49.87467921 47.95299601 -55 51 C-52.31040591 53.8738234 -49.75651929 55.91034806 -46.31640625 57.8125 C-45.39827148 58.32522461 -44.48013672 58.83794922 -43.53417969 59.36621094 C-42.55352539 59.90536133 -41.57287109 60.44451172 -40.5625 61 C-38.49573624 62.15039961 -36.42933859 63.30145718 -34.36328125 64.453125 C-33.31092285 65.03771484 -32.25856445 65.62230469 -31.17431641 66.22460938 C-25.27120182 69.52621292 -19.41805279 72.9158187 -13.56469727 76.3046875 C-12.74412842 76.77648437 -11.92355957 77.24828125 -11.078125 77.734375 C-10.36043945 78.14913086 -9.64275391 78.56388672 -8.90332031 78.99121094 C-6.87491729 80.1332853 -6.87491729 80.1332853 -4 81 C-1.26707455 79.82689111 -1.26707455 79.82689111 1.71484375 78.01953125 C2.27867264 77.69520111 2.84250153 77.37087097 3.42341614 77.03671265 C5.26759273 75.97219756 7.10265812 74.89301337 8.9375 73.8125 C10.19984298 73.07727558 11.46254042 72.34265944 12.72558594 71.60864258 C15.27186427 70.12601265 17.81394565 68.63652042 20.35302734 67.14160156 C23.65766519 65.19703243 26.97767645 63.28005138 30.30078125 61.3671875 C32.11789487 60.30850486 33.93434978 59.24869043 35.75 58.1875 C37.01638306 57.461073 37.01638306 57.461073 38.30834961 56.7199707 C39.44735718 56.04454224 39.44735718 56.04454224 40.609375 55.35546875 C41.26905273 54.97028076 41.92873047 54.58509277 42.60839844 54.18823242 C43.06762695 53.79611572 43.52685547 53.40399902 44 53 C44 52.01 44 51.02 44 50 C41.69470947 48.40571619 39.44424552 47.0411726 37 45.6875 C35.45293247 44.80502493 33.90606984 43.9221906 32.359375 43.0390625 C31.50923828 42.55856445 30.65910156 42.07806641 29.78320312 41.58300781 C24.57850261 38.62272026 19.4185908 35.58523069 14.25 32.5625 C11.33388412 30.86362645 8.41754584 29.16513606 5.50097656 27.46704102 C3.79877079 26.46854878 2.12861913 25.4137937 0.49121094 24.31225586 C-4.55754323 21.65280333 -7.71311734 23.05210297 -12.40234375 25.82421875 Z M-84.69921875 67.97265625 C-85.81417725 68.61823486 -86.92913574 69.26381348 -88.07788086 69.92895508 C-89.28119484 70.63995464 -90.48439868 71.35114064 -91.6875 72.0625 C-92.92851173 72.7857903 -94.17013843 73.50802641 -95.41235352 74.22924805 C-97.98566868 75.72509633 -100.5555685 77.22657848 -103.12304688 78.73242188 C-106.88920981 80.93899921 -110.66874023 83.12172924 -114.453125 85.296875 C-115.04571609 85.6375853 -115.63830719 85.97829559 -116.24885559 86.32933044 C-116.83100327 86.66400833 -117.41315094 86.99868622 -118.01293945 87.34350586 C-121.27999299 89.22193937 -124.54522038 91.10346214 -127.80859375 92.98828125 C-129.13588501 93.75458862 -129.13588501 93.75458862 -130.48999023 94.53637695 C-131.31829346 95.01937256 -132.14659668 95.50236816 -133 96 C-133.86447754 96.36422058 -134.72895508 96.72844116 -135.61962891 97.10369873 C-138.3676467 98.86414829 -138.3676467 98.86414829 -138.61231995 102.44688416 C-138.63238034 103.89927561 -138.62482942 105.35220055 -138.59594727 106.80444336 C-138.6000058 107.59824905 -138.60406433 108.39205475 -138.60824585 109.20991516 C-138.61376698 110.93360848 -138.60774348 112.65736838 -138.59158516 114.3809948 C-138.56622804 117.10901583 -138.57094154 119.83552117 -138.58348083 122.56361389 C-138.60425841 128.35507486 -138.58452839 134.14606969 -138.5625 139.9375 C-138.54141146 146.64462616 -138.5368056 153.35126631 -138.56300163 160.05838203 C-138.56636757 162.74645458 -138.54512164 165.43360383 -138.52259827 168.12156677 C-138.52510944 169.76976727 -138.52866937 171.41796662 -138.53344727 173.06616211 C-138.52056168 173.81382843 -138.50767609 174.56149475 -138.49440002 175.33181763 C-138.52783004 178.78691505 -138.71611799 180.63765399 -140.87739563 183.39630127 C-143.23070319 185.17430399 -145.59730734 186.68890667 -148.1640625 188.14453125 C-149.19120361 188.73161865 -150.21834473 189.31870605 -151.27661133 189.92358398 C-152.38157959 190.54692627 -153.48654785 191.17026855 -154.625 191.8125 C-156.37483019 192.81090863 -158.1246552 193.80932647 -159.87416077 194.80830383 C-161.69441724 195.84656736 -163.51622543 196.88206206 -165.33837891 197.91699219 C-188.9847971 209.68360772 -188.9847971 209.68360772 -210 225 C-210.33577614 227.9592908 -210.33577614 227.9592908 -210.32226562 231.48168945 C-210.33716034 232.47957489 -210.33716034 232.47957489 -210.35235596 233.49761963 C-210.38161285 235.702882 -210.39520575 237.90785653 -210.40625 240.11328125 C-210.41775334 241.64544178 -210.4292688 243.17760222 -210.4407959 244.70976257 C-210.46182074 247.92525576 -210.47350226 251.1406489 -210.48046875 254.35620117 C-210.49142999 258.47255429 -210.53945963 262.58758132 -210.59641266 266.70351887 C-210.63370537 269.87002896 -210.64407861 273.03622122 -210.6471405 276.20293236 C-210.65318766 277.72001572 -210.66922581 279.23709387 -210.69551086 280.75396156 C-211.13393893 288.65309532 -211.13393893 288.65309532 -208.82614136 295.94554138 C-207.14658909 297.50774741 -207.14658909 297.50774741 -204 299 C-203.0527002 299.59868896 -202.10540039 300.19737793 -201.12939453 300.81420898 C-200.14052246 301.36923096 -199.15165039 301.92425293 -198.1328125 302.49609375 C-197.01076416 303.13087646 -195.88871582 303.76565918 -194.73266602 304.41967773 C-193.53019118 305.09242906 -192.32763403 305.76503329 -191.125 306.4375 C-188.61441349 307.85156463 -186.10599379 309.26945077 -183.59765625 310.6875 C-182.96474167 311.04456528 -182.33182709 311.40163055 -181.67973328 311.76951599 C-177.42392593 314.1759402 -173.2025956 316.63332298 -168.99609375 319.125 C-167.90989746 319.76767822 -166.82370117 320.41035645 -165.70458984 321.07250977 C-163.65088024 322.29149093 -161.60027647 323.51572405 -159.55322266 324.74584961 C-158.16756104 325.56581421 -158.16756104 325.56581421 -156.75390625 326.40234375 C-155.95283447 326.88179443 -155.1517627 327.36124512 -154.32641602 327.85522461 C-151.77388583 329.11126554 -149.84271555 329.78966454 -147 330 C-144.55512866 329.10928414 -144.55512866 329.10928414 -142.17578125 327.5625 C-141.24241943 327.00457764 -140.30905762 326.44665527 -139.34741211 325.87182617 C-138.34589111 325.25412354 -137.34437012 324.6364209 -136.3125 324 C-134.15426287 322.70339945 -131.99538583 321.40786357 -129.8359375 320.11328125 C-128.15516113 319.09741943 -128.15516113 319.09741943 -126.44042969 318.06103516 C-120.82442125 314.68133668 -115.12534334 311.44422222 -109.4375 308.1875 C-100.79461317 303.24122632 -100.79461317 303.24122632 -92.2734375 298.08984375 C-91.58967041 297.66614502 -90.90590332 297.24244629 -90.20141602 296.8059082 C-88.47749164 295.7281491 -86.76357242 294.63442835 -85.05078125 293.5390625 C-80.68178797 291.3349865 -77.03671652 290.35142024 -72.2890625 291.86328125 C-71.40992188 292.34152344 -70.53078125 292.81976563 -69.625 293.3125 C-68.05492187 294.15941406 -68.05492187 294.15941406 -66.453125 295.0234375 C-61.28801199 297.97993884 -56.14858233 300.97448239 -51.03515625 304.01953125 C-43.86985677 308.27772455 -36.64300777 312.43071889 -29.41064453 316.57373047 C-24.71613166 319.26451316 -20.03017497 321.95296635 -15.43359375 324.80859375 C-14.79381592 325.19901855 -14.15403809 325.58944336 -13.49487305 325.99169922 C-11.89913144 326.97098041 -10.31603996 327.97079852 -8.734375 328.97265625 C-5.05887448 330.3535943 -3.60927834 329.42799484 0 328 C1.9822633 326.98239996 3.93734604 325.91069258 5.8671875 324.796875 C6.98931641 324.15266602 8.11144531 323.50845703 9.26757812 322.84472656 C10.47021679 322.14676809 11.67268711 321.44851949 12.875 320.75 C14.1163395 320.03318745 15.3578785 319.31672029 16.59960938 318.60058594 C19.14474657 317.13141368 21.68778172 315.65868561 24.22949219 314.18359375 C27.82499264 312.09840212 31.43130469 310.03266129 35.0390625 307.96875 C37.19299208 306.72965977 39.34665138 305.49009957 41.5 304.25 C43.00216064 303.39293457 43.00216064 303.39293457 44.53466797 302.51855469 C45.46166504 301.98133789 46.38866211 301.44412109 47.34375 300.890625 C48.15005859 300.42688477 48.95636719 299.96314453 49.78710938 299.48535156 C53.34548856 297.09687197 55.63159589 295.10521232 57 291 C57.6302777 282.35134373 57.63379487 273.63105703 57.75568962 264.96095753 C57.81229751 260.99334024 57.89382752 257.0297723 58.03564453 253.06420898 C58.17246928 249.22181059 58.24457513 245.38307846 58.27234268 241.53839684 C58.29373455 240.07917454 58.33762032 238.6200917 58.405056 237.1622715 C58.60892459 232.54240553 58.54352507 228.42716173 57 224 C53.05094696 220.28155514 48.93389014 218.26837967 44 216 C41.85236024 214.77943565 39.71395054 213.54232263 37.58984375 212.28125 C35.3735152 211.01886606 33.15602953 209.75851188 30.9375 208.5 C29.73956899 207.81712374 28.54181911 207.13392964 27.34423828 206.45043945 C21.57692286 203.16085631 15.80204965 199.88515753 10.01496887 196.63046265 C7.42295137 195.17153374 4.83388344 193.70741821 2.24514771 192.24267578 C1.00435216 191.54259343 -0.23792838 190.84513616 -1.48171997 190.15039062 C-3.21271694 189.18341003 -4.93851963 188.20714873 -6.6640625 187.23046875 C-7.64842285 186.67770264 -8.6327832 186.12493652 -9.64697266 185.55541992 C-12 184 -12 184 -14 181 C-14.18711419 178.42882133 -14.25957297 175.96570692 -14.23950195 173.39501953 C-14.24151611 172.62232727 -14.24353027 171.84963501 -14.24560547 171.05352783 C-14.24915086 169.3756763 -14.24838402 167.69781141 -14.24382973 166.01996231 C-14.23824041 163.36340162 -14.24738882 160.70727818 -14.2610321 158.05075073 C-14.29817672 150.49784423 -14.31669786 142.94508509 -14.30541992 135.39208984 C-14.29956669 130.77185718 -14.31784052 126.15223866 -14.35130882 121.5321312 C-14.35926154 119.77231436 -14.35798754 118.01243058 -14.34728432 116.25262833 C-14.33294646 113.78899725 -14.34923709 111.32729432 -14.37231445 108.86376953 C-14.36054672 108.13839996 -14.34877899 107.4130304 -14.33665466 106.66567993 C-14.40823141 102.76460204 -14.87495992 101.15112281 -17.39559937 98.10469055 C-19.76534708 96.18962973 -22.0075873 94.62014245 -24.67578125 93.16015625 C-25.57490234 92.6612085 -26.47402344 92.16226074 -27.40039062 91.64819336 C-28.36138672 91.12491455 -29.32238281 90.60163574 -30.3125 90.0625 C-32.37197984 88.92086786 -34.4305432 87.77758116 -36.48828125 86.6328125 C-37.55385254 86.04145508 -38.61942383 85.45009766 -39.71728516 84.84082031 C-45.18479018 81.77485364 -50.59228774 78.60739377 -56 75.4375 C-60.2786114 72.93078319 -60.2786114 72.93078319 -64.5625 70.43310547 C-66.07367774 69.54462256 -67.57578846 68.64026852 -69.0625 67.71142578 C-75.22692883 63.92342412 -78.56001291 64.37662689 -84.69921875 67.97265625 Z M-210 70 C-210.18574656 77.45818783 -210.3276964 84.91587355 -210.41449738 92.37590981 C-210.45616973 95.84047017 -210.51263635 99.30344318 -210.60351562 102.76708984 C-210.70744786 106.75338409 -210.74595586 110.73904645 -210.78125 114.7265625 C-210.82254028 115.96427399 -210.86383057 117.20198547 -210.90637207 118.47720337 C-211.05136992 124.67080218 -211.05136992 124.67080218 -208.39126587 130.02072144 C-206.33662233 131.60368344 -204.30435636 132.81539832 -202 134 C-200.38810791 135.00135986 -200.38810791 135.00135986 -198.74365234 136.02294922 C-197.70160645 136.61092285 -196.65956055 137.19889648 -195.5859375 137.8046875 C-195.00897125 138.13236115 -194.432005 138.46003479 -193.83755493 138.79763794 C-192.01958325 139.82861978 -190.19748105 140.85201505 -188.375 141.875 C-187.18069817 142.55026611 -185.98668624 143.22604521 -184.79296875 143.90234375 C-182.41290208 145.25023493 -180.03077188 146.59437865 -177.64746094 147.93652344 C-175.09670933 149.37551112 -172.55433917 150.82822431 -170.01660156 152.29003906 C-169.37115387 152.6613797 -168.72570618 153.03272034 -168.06069946 153.41531372 C-166.81761808 154.13135212 -165.57553405 154.84912542 -164.33456421 155.56881714 C-161.82310435 157.27305466 -161.82310435 157.27305466 -159 158 C-158.88408856 150.5070218 -158.79527629 143.01413668 -158.74093914 135.52046585 C-158.71485778 132.04066526 -158.67948956 128.56147853 -158.62280273 125.08203125 C-158.55802181 121.08066967 -158.53380788 117.07995161 -158.51171875 113.078125 C-158.48591232 111.83009094 -158.4601059 110.58205688 -158.43351746 109.29620361 C-158.4331398 108.13530212 -158.43276215 106.97440063 -158.43237305 105.77832031 C-158.42126999 104.75683899 -158.41016693 103.73535767 -158.39872742 102.68292236 C-159.22260593 99.00671602 -160.92051645 98.03737208 -164 96 C-165.98163494 94.78112921 -167.98914631 93.60370046 -170.015625 92.4609375 C-170.58478134 92.1380777 -171.15393768 91.8152179 -171.74034119 91.48257446 C-173.57472611 90.44283038 -175.41233415 89.4089321 -177.25 88.375 C-179.77327248 86.94731555 -182.29486372 85.5166746 -184.81640625 84.0859375 C-185.43586624 83.73497009 -186.05532623 83.38400269 -186.69355774 83.0223999 C-192.60244804 79.66993961 -198.45781077 76.23070441 -204.28808594 72.74365234 C-206.9723378 70.83963975 -206.9723378 70.83963975 -210 70 Z M46 75.5625 C44.98719971 76.13589111 43.97439941 76.70928223 42.9309082 77.30004883 C34.96032894 81.83664143 27.05759167 86.47953966 19.1875 91.1875 C18.10275391 91.83468994 17.01800781 92.48187988 15.90039062 93.14868164 C14.89556641 93.75317139 13.89074219 94.35766113 12.85546875 94.98046875 C11.96496826 95.51567139 11.07446777 96.05087402 10.15698242 96.60229492 C7.85171112 98.09608985 6.29191642 99.15043995 5.38209534 101.79827881 C4.94524303 104.31552224 4.88027138 106.67181054 4.88647461 109.22753906 C4.88655014 110.26831604 4.88662567 111.30909302 4.88670349 112.38140869 C4.89186478 113.49820007 4.89702606 114.61499146 4.90234375 115.765625 C4.9037587 116.91415955 4.90517365 118.06269409 4.90663147 119.24603271 C4.91222857 122.91404831 4.92478056 126.58200285 4.9375 130.25 C4.94251537 132.73697829 4.94707822 135.22395753 4.95117188 137.7109375 C4.96219705 143.8073125 4.97893231 149.90365189 5 156 C8.11541113 157.4222249 8.11541113 157.4222249 11.38671875 155.40234375 C12.82651505 154.59164764 14.259631 153.76902371 15.6875 152.9375 C16.4619043 152.49647949 17.23630859 152.05545898 18.03417969 151.60107422 C20.69639037 150.07914061 23.34835798 148.54026849 26 147 C27.0223877 146.41009277 28.04477539 145.82018555 29.09814453 145.21240234 C43.82981526 137.71493712 43.82981526 137.71493712 57 128 C57.09376053 126.18944975 57.1174411 124.37522799 57.11352539 122.56225586 C57.11344986 121.40112778 57.11337433 120.23999969 57.11329651 119.04368591 C57.10555458 117.14840904 57.10555458 117.14840904 57.09765625 115.21484375 C57.0962413 113.92888809 57.09482635 112.64293243 57.09336853 111.31800842 C57.08954418 107.89356557 57.07971462 104.46916491 57.06866455 101.04473877 C57.05844864 97.55261811 57.05387053 94.06049066 57.04882812 90.56835938 C57.03809227 83.71222222 57.02101684 76.85611313 57 70 C53.5390105 70 48.93425135 73.89973369 46 75.5625 Z M-228.40234375 150.82421875 C-229.44793457 151.43515381 -230.49352539 152.04608887 -231.57080078 152.67553711 C-232.68181152 153.33948486 -233.79282227 154.00343262 -234.9375 154.6875 C-236.09042056 155.36627211 -237.24391039 156.04407817 -238.39794922 156.72094727 C-241.35608062 158.45926164 -244.30659278 160.2100928 -247.25543213 161.96411133 C-250.03418795 163.61407962 -252.82006806 165.25190684 -255.60546875 166.890625 C-260.74359124 169.91599648 -265.87467921 172.95299601 -271 176 C-268.44084745 178.89403091 -265.53055174 180.55393972 -262.1796875 182.44140625 C-261.60797318 182.76572632 -261.03625885 183.09004639 -260.44721985 183.42419434 C-258.59252501 184.47518129 -256.73407471 185.51928273 -254.875 186.5625 C-252.32555326 187.99775767 -249.77751606 189.43548879 -247.23046875 190.875 C-246.60358658 191.22885269 -245.97670441 191.58270538 -245.33082581 191.94728088 C-241.71204609 193.99906572 -238.14383091 196.11078433 -234.61328125 198.3125 C-233.84967285 198.78486084 -233.08606445 199.25722168 -232.29931641 199.74389648 C-230.93625313 200.59498374 -229.58219587 201.46075036 -228.23974609 202.34399414 C-225.31395362 204.15663668 -223.19986009 204.99136259 -219.74609375 205.140625 C-214.27935285 203.47609075 -209.73495551 200.65235396 -204.875 197.6875 C-202.74796973 196.41700745 -200.62035294 195.14749639 -198.4921875 193.87890625 C-196.88102051 192.91235107 -196.88102051 192.91235107 -195.23730469 191.92626953 C-190.19577268 188.92644392 -185.10027083 186.02346385 -180 183.125 C-179.09233887 182.60768311 -178.18467773 182.09036621 -177.24951172 181.55737305 C-175.16697551 180.37046166 -173.0838239 179.18464862 -171 178 C-171 177.01 -171 176.02 -171 175 C-171.66829834 174.6282666 -172.33659668 174.2565332 -173.02514648 173.87353516 C-207.55193249 154.65084997 -207.55193249 154.65084997 -215.640625 149.23046875 C-220.53110797 146.67996853 -223.88616522 148.15440316 -228.40234375 150.82421875 Z M58.4375 151.625 C57.56013184 152.108479 56.68276367 152.59195801 55.77880859 153.09008789 C48.51006921 157.11873741 41.30618141 161.25504763 34.125 165.4375 C33.10978271 166.02805176 32.09456543 166.61860352 31.04858398 167.22705078 C26.2692062 170.0243254 21.55901301 172.85505374 17 176 C20.51080609 178.93960832 24.06899343 181.31825092 28.05078125 183.57421875 C28.90834518 184.06267776 28.90834518 184.06267776 29.78323364 184.56100464 C31.62373219 185.60781682 33.46777033 186.64816465 35.3125 187.6875 C36.58026412 188.40403042 37.84792325 189.12074665 39.11547852 189.83764648 C41.00024195 190.90355628 42.88520136 191.96909859 44.77128601 193.03266907 C48.27911591 195.01355538 51.76388333 197.02723503 55.2265625 199.0859375 C55.95576904 199.51430908 56.68497559 199.94268066 57.4362793 200.3840332 C58.7282413 201.14483601 60.01411474 201.9161196 61.29223633 202.69995117 C63.75965381 204.13571308 65.42678976 205.05383476 68.31616211 204.7824707 C71.51689766 203.84929892 74.06013639 202.46252809 76.9453125 200.7890625 C77.50904572 200.46469208 78.07277893 200.14032166 78.65359497 199.80612183 C80.48130656 198.75235099 82.30312539 197.68882481 84.125 196.625 C85.38082001 195.89845748 86.63700732 195.17254947 87.89355469 194.44726562 C91.01673391 192.64262117 94.1353594 190.83026877 97.25280762 189.01574707 C99.85558605 187.50259683 102.46288833 185.99731454 105.0703125 184.4921875 C109.38401723 182.00130759 113.69348756 179.50329294 118 177 C115.1956086 173.97756625 112.48890658 171.94690377 108.87890625 169.96875 C107.87021484 169.41074707 106.86152344 168.85274414 105.82226562 168.27783203 C104.74654297 167.69114746 103.67082031 167.10446289 102.5625 166.5 C100.3132951 165.25873073 98.06460635 164.01652576 95.81640625 162.7734375 C94.68219238 162.14791992 93.54797852 161.52240234 92.37939453 160.87792969 C86.31007128 157.5052065 80.29834165 154.03198828 74.28735352 150.55664062 C73.47065186 150.08677734 72.6539502 149.61691406 71.8125 149.1328125 C70.73935547 148.51237061 70.73935547 148.51237061 69.64453125 147.87939453 C65.87928355 145.86597081 61.81062833 149.76355652 58.4375 151.625 Z M-282 195 C-282.19377805 202.59857223 -282.37114307 210.19740063 -282.53710938 217.79663086 C-282.5955029 220.38167997 -282.65765151 222.9666471 -282.72363281 225.55151367 C-282.81782889 229.26726353 -282.8985109 232.98309904 -282.9765625 236.69921875 C-283.00875885 237.85459641 -283.0409552 239.00997406 -283.0741272 240.20036316 C-283.09429901 241.28110611 -283.11447083 242.36184906 -283.13525391 243.4753418 C-283.15746002 244.42354294 -283.17966614 245.37174408 -283.20254517 246.34867859 C-282.92716188 249.95345287 -282.13677875 252.92412011 -279.46875 255.44921875 C-272.82077912 259.63058139 -265.962366 263.41261292 -259.078125 267.1875 C-255.43975776 269.18932103 -251.83103205 271.23667389 -248.234375 273.3125 C-247.27950195 273.86341309 -246.32462891 274.41432617 -245.34082031 274.98193359 C-243.46844987 276.06487043 -241.59795625 277.15105971 -239.72949219 278.24072266 C-238.88032227 278.7310498 -238.03115234 279.22137695 -237.15625 279.7265625 C-236.40150391 280.16564941 -235.64675781 280.60473633 -234.86914062 281.05712891 C-233.05130284 282.15012761 -233.05130284 282.15012761 -231 282 C-230.93050371 274.6199985 -230.87719086 267.2400675 -230.84456348 259.85980511 C-230.82890426 256.43286777 -230.80766196 253.00615423 -230.77368164 249.5793457 C-230.73486486 245.64016392 -230.72029284 241.70107291 -230.70703125 237.76171875 C-230.69154739 236.53039719 -230.67606354 235.29907562 -230.66011047 234.03044128 C-230.65977058 232.31900688 -230.65977058 232.31900688 -230.65942383 230.57299805 C-230.65276199 229.567061 -230.64610016 228.56112396 -230.63923645 227.52470398 C-231.05981405 224.5814079 -231.67681412 223.77930589 -234 222 C-235.71905074 220.9034609 -237.47123018 219.85822224 -239.2421875 218.84765625 C-240.82785522 217.93802124 -240.82785522 217.93802124 -242.44555664 217.01000977 C-243.57727295 216.36733154 -244.70898926 215.72465332 -245.875 215.0625 C-247.041166 214.39615739 -248.20709826 213.72940554 -249.37280273 213.06225586 C-251.74924591 211.70308636 -254.12721273 210.34663937 -256.50634766 208.9921875 C-259.79490364 207.11892058 -263.07597247 205.23283928 -266.35546875 203.34375 C-268.25773946 202.24987297 -270.16007929 201.15611613 -272.0625 200.0625 C-272.95372559 199.54888916 -273.84495117 199.03527832 -274.76318359 198.50610352 C-275.98062256 197.80892212 -275.98062256 197.80892212 -277.22265625 197.09765625 C-277.93172119 196.69039307 -278.64078613 196.28312988 -279.37133789 195.86352539 C-280.84001211 194.92192745 -280.84001211 194.92192745 -282 195 Z M121.890625 197.82421875 C120.83552734 198.43499268 119.78042969 199.0457666 118.69335938 199.67504883 C116.98889648 200.67121216 116.98889648 200.67121216 115.25 201.6875 C114.08152634 202.36703193 112.91290519 203.04631032 111.74414062 203.7253418 C108.7464382 205.46893647 105.75237187 207.2186736 102.75952148 208.97058105 C101.05729209 209.96648091 99.35386181 210.96032727 97.65039062 211.95410156 C94.5977075 213.73592119 91.54808963 215.52283595 88.5 217.3125 C87.56961914 217.85672607 86.63923828 218.40095215 85.68066406 218.96166992 C84.82698242 219.46545166 83.97330078 219.9692334 83.09375 220.48828125 C82.34802734 220.92696533 81.60230469 221.36564941 80.83398438 221.81762695 C78.8609589 222.99827105 78.8609589 222.99827105 77 225 C76.7071374 227.46768356 76.7071374 227.46768356 76.77294922 230.36767578 C76.77310028 231.48868683 76.77325134 232.60969788 76.77340698 233.76467896 C76.78372955 234.97928802 76.79405212 236.19389709 76.8046875 237.4453125 C76.8075174 238.68546112 76.81034729 239.92560974 76.81326294 241.20333862 C76.82257826 244.50124633 76.8405511 247.79895972 76.8626709 251.09680176 C76.88312526 254.4616457 76.89226377 257.82651807 76.90234375 261.19140625 C76.92443481 267.79434723 76.95793517 274.39715771 77 281 C77.66 281.33 78.32 281.66 79 282 C81.58177372 280.87156482 81.58177372 280.87156482 84.50390625 279.16796875 C85.62966064 278.53866455 86.75541504 277.90936035 87.9152832 277.26098633 C89.13121241 276.57015902 90.3469477 275.87899029 91.5625 275.1875 C92.79424002 274.49389625 94.02625594 273.80078226 95.25854492 273.1081543 C104.57378518 267.8599336 113.8763618 262.57614675 123 257 C124.04712158 256.56743896 125.09424316 256.13487793 126.1730957 255.68920898 C129.52336378 252.50212867 129.45923014 251.6860444 129.68115234 247.22167969 C129.68020238 244.78820466 129.64630121 242.35460142 129.5859375 239.921875 C129.57320297 237.99930878 129.57320297 237.99930878 129.56021118 236.03790283 C129.53734933 232.63746405 129.47845492 229.23857382 129.4119873 225.83874512 C129.35050409 222.36666819 129.32318366 218.8943399 129.29296875 215.421875 C129.22870467 208.61394893 129.12636068 201.80704888 129 195 C126.08536226 195 124.40484985 196.36276622 121.890625 197.82421875 Z M-210 320 C-210.21911314 327.74082864 -210.41399463 335.48199558 -210.59204102 343.22387695 C-210.65546813 345.85748088 -210.7244414 348.49095732 -210.79907227 351.12426758 C-210.90538614 354.90946946 -210.99174455 358.69468169 -211.07421875 362.48046875 C-211.11157639 363.65772018 -211.14893402 364.83497162 -211.18742371 366.04789734 C-211.20767105 367.14866104 -211.2279184 368.24942474 -211.2487793 369.38354492 C-211.27320602 370.34951096 -211.29763275 371.31547699 -211.32279968 372.31071472 C-210.93630957 375.53061311 -209.8672275 377.37569414 -208 380 C-206.42875543 381.31181638 -206.42875543 381.31181638 -204.61328125 382.18359375 C-203.5936731 382.72874634 -203.5936731 382.72874634 -202.5534668 383.28491211 C-201.81394775 383.66526611 -201.07442871 384.04562012 -200.3125 384.4375 C-198.6990145 385.29926894 -197.08712229 386.1640255 -195.4765625 387.03125 C-194.16800293 387.73314453 -194.16800293 387.73314453 -192.83300781 388.44921875 C-187.55603297 391.33782132 -182.37650668 394.39458102 -177.1875 397.4375 C-176.1560083 398.04070068 -175.1245166 398.64390137 -174.06176758 399.26538086 C-166.36559123 403.77097126 -166.36559123 403.77097126 -163.3059082 405.68774414 C-161.15248589 407.16486738 -161.15248589 407.16486738 -159 407 C-158.79103846 399.54193139 -158.63134641 392.08449802 -158.53369045 384.62409019 C-158.48680606 381.15930854 -158.42328348 377.6965355 -158.32104492 374.23291016 C-158.2041227 370.24666817 -158.16080237 366.26122571 -158.12109375 362.2734375 C-158.07464218 361.03572601 -158.02819061 359.79801453 -157.98033142 358.52279663 C-157.83612897 352.22600249 -157.83612897 352.22600249 -160.83210754 346.98051453 C-163.1530572 345.40394555 -165.4584422 344.18258792 -168 343 C-169.12253174 342.32718994 -170.24506348 341.65437988 -171.40161133 340.96118164 C-172.4511499 340.36684326 -173.50068848 339.77250488 -174.58203125 339.16015625 C-175.1623259 338.83011093 -175.74262054 338.50006561 -176.34049988 338.16001892 C-178.16274081 337.1243742 -179.98747593 336.09323074 -181.8125 335.0625 C-183.61942805 334.03827413 -185.42580276 333.01308095 -187.23190308 331.98739624 C-188.41622289 331.31512183 -189.60105189 330.64374359 -190.78640747 329.97329712 C-193.70328485 328.32040163 -196.60706979 326.6486674 -199.48974609 324.93701172 C-200.56949707 324.29650879 -201.64924805 323.65600586 -202.76171875 322.99609375 C-203.72424561 322.41915771 -204.68677246 321.84222168 -205.6784668 321.24780273 C-207.85433814 319.84218773 -207.85433814 319.84218773 -210 320 Z M-94.26171875 322.3515625 C-95.12240967 322.86662354 -95.98310059 323.38168457 -96.86987305 323.91235352 C-97.79968994 324.47752686 -98.72950684 325.0427002 -99.6875 325.625 C-101.66600975 326.81489506 -103.64520232 328.00365534 -105.625 329.19140625 C-106.66140625 329.81418457 -107.6978125 330.43696289 -108.765625 331.07861328 C-112.05466138 333.0324717 -115.36569423 334.94229124 -118.6875 336.83984375 C-119.77329346 337.4622998 -120.85908691 338.08475586 -121.9777832 338.72607422 C-124.08739103 339.93307734 -126.20042632 341.13411315 -128.31713867 342.32861328 C-129.2785376 342.88145996 -130.23993652 343.43430664 -131.23046875 344.00390625 C-132.08020264 344.48674072 -132.92993652 344.9695752 -133.80541992 345.46704102 C-136.21385961 347.1493853 -137.4560334 348.50444756 -139 351 C-139.4446309 353.56517825 -139.4446309 353.56517825 -139.37231445 356.37939453 C-139.37854324 357.45375763 -139.38477203 358.52812073 -139.39118958 359.63504028 C-139.38197983 360.78930511 -139.37277008 361.94356995 -139.36328125 363.1328125 C-139.36377975 364.32099579 -139.36427826 365.50917908 -139.36479187 366.73336792 C-139.36245221 369.24332351 -139.35273009 371.75328147 -139.33618164 374.26318359 C-139.31254861 378.11707381 -139.31562683 381.9702743 -139.32226562 385.82421875 C-139.31669036 388.26042081 -139.30958143 390.69661995 -139.30078125 393.1328125 C-139.30169266 394.29112579 -139.30260406 395.44943909 -139.30354309 396.64285278 C-139.29401108 397.71091156 -139.28447906 398.77897034 -139.2746582 399.87939453 C-139.27005081 400.82219269 -139.26544342 401.76499084 -139.26069641 402.73635864 C-139.21460235 405.19977304 -139.21460235 405.19977304 -137 407 C-126.69789189 401.35465288 -116.47185051 395.58622609 -106.3125 389.6875 C-105.29800781 389.10145996 -104.28351563 388.51541992 -103.23828125 387.91162109 C-93.92581282 383.20246617 -93.92581282 383.20246617 -87 376 C-86.9091762 374.21268076 -86.88246201 372.42194511 -86.88647461 370.63232422 C-86.88655014 369.51131317 -86.88662567 368.39030212 -86.88670349 367.23532104 C-86.89186478 366.02071198 -86.89702606 364.80610291 -86.90234375 363.5546875 C-86.9037587 362.31453888 -86.90517365 361.07439026 -86.90663147 359.79666138 C-86.91128904 356.49881867 -86.92027561 353.20102454 -86.93133545 349.90319824 C-86.94156269 346.53833613 -86.94613191 343.17346692 -86.95117188 339.80859375 C-86.96221731 333.20571007 -86.97896753 326.60285901 -87 320 C-90.39440914 320 -91.40865531 320.62611371 -94.26171875 322.3515625 Z M-66 320 C-67.25765047 322.51530093 -67.15434366 324.28932232 -67.19287109 327.10473633 C-67.20893402 328.16956741 -67.22499695 329.2343985 -67.24154663 330.33149719 C-67.28593193 335.20349546 -67.32705853 340.07535669 -67.35009766 344.94750977 C-67.36666521 347.51889084 -67.39396529 350.09022572 -67.43212891 352.66137695 C-67.48682553 356.36433867 -67.50876159 360.06622025 -67.5234375 363.76953125 C-67.54610687 364.9186348 -67.56877625 366.06773834 -67.59213257 367.25166321 C-67.64000967 373.55788459 -67.64000967 373.55788459 -64.84326172 379.03710938 C-61.93891644 381.04217 -59.06624811 382.91434086 -55.984375 384.63671875 C-55.41526398 384.9581636 -54.84615295 385.27960846 -54.25979614 385.61079407 C-52.42732846 386.64392236 -50.58883623 387.66575795 -48.75 388.6875 C-46.8542715 389.75195336 -44.96008552 390.81911467 -43.06600952 391.88650513 C-41.81184129 392.59307678 -40.55714374 393.29870972 -39.3019104 394.00338745 C-33.40583354 397.31779537 -27.58531742 400.75329368 -21.79980469 404.2565918 C-18.62332846 406.32260022 -18.62332846 406.32260022 -15 407 C-14.89858256 399.11640408 -14.82852669 391.23297638 -14.78027344 383.34887695 C-14.76241675 380.66672177 -14.73458564 377.9849454 -14.69824219 375.30297852 C-14.64972458 371.44796934 -14.62703006 367.59354002 -14.609375 363.73828125 C-14.58872986 362.53915604 -14.56808472 361.34003082 -14.54681396 360.10456848 C-14.48361401 353.74619449 -14.48361401 353.74619449 -16.6862793 347.9152832 C-19.17133595 345.8581692 -21.59568612 344.19830746 -24.41015625 342.6171875 C-25.47427734 342.01205322 -26.53839844 341.40691895 -27.63476562 340.78344727 C-28.76591797 340.15365967 -29.89707031 339.52387207 -31.0625 338.875 C-32.23038489 338.21576617 -33.39769865 337.55551956 -34.56445312 336.89428711 C-36.91465921 335.56316188 -39.26738155 334.23664324 -41.62158203 332.91259766 C-44.72035324 331.15831426 -47.80005312 329.37649756 -50.87109375 327.57421875 C-51.74435303 327.06197754 -52.6176123 326.54973633 -53.51733398 326.02197266 C-55.14191208 325.06693992 -56.76517765 324.1096701 -58.38696289 323.14990234 C-61.95459284 320.83138364 -61.95459284 320.83138364 -66 320 Z M49.49609375 322.9296875 C48.37025879 323.55576904 47.24442383 324.18185059 46.08447266 324.8269043 C44.86863617 325.50928415 43.65298202 326.19198896 42.4375 326.875 C41.20626577 327.56364435 39.97498307 328.25220203 38.74365234 328.94067383 C31.84244462 332.80658703 24.9573217 336.70087723 18.125 340.6875 C17.13004517 341.26443604 17.13004517 341.26443604 16.11499023 341.85302734 C9.60700815 345.44898764 9.60700815 345.44898764 5 351 C4.89941943 352.67924675 4.86164584 354.36243567 4.85473633 356.04467773 C4.84835648 357.09594345 4.84197662 358.14720917 4.83540344 359.23033142 C4.83429062 360.36990799 4.8331778 361.50948456 4.83203125 362.68359375 C4.82870285 363.85003922 4.82537445 365.01648468 4.82194519 366.21827698 C4.81687516 368.68888962 4.81453689 371.15950912 4.81469727 373.63012695 C4.81251111 377.41824579 4.79435682 381.20607338 4.77539062 384.99414062 C4.77245672 387.390624 4.7704719 389.78710876 4.76953125 392.18359375 C4.76234573 393.32114609 4.75516022 394.45869843 4.74775696 395.63072205 C4.75083359 396.68513992 4.75391022 397.7395578 4.75708008 398.82592773 C4.75565506 399.7547728 4.75423004 400.68361786 4.75276184 401.64060974 C4.84330742 404.2686728 4.84330742 404.2686728 7 407 C25.52428973 396.80990938 25.52428973 396.80990938 43.875 386.3125 C44.53814209 385.92787598 45.20128418 385.54325195 45.88452148 385.14697266 C52.39289522 381.55124346 52.39289522 381.55124346 57 376 C57.0908238 374.21268076 57.11753799 372.42194511 57.11352539 370.63232422 C57.11344986 369.51131317 57.11337433 368.39030212 57.11329651 367.23532104 C57.10813522 366.02071198 57.10297394 364.80610291 57.09765625 363.5546875 C57.0962413 362.31453888 57.09482635 361.07439026 57.09336853 359.79666138 C57.08871096 356.49881867 57.07972439 353.20102454 57.06866455 349.90319824 C57.05843731 346.53833613 57.05386809 343.17346692 57.04882812 339.80859375 C57.03778269 333.20571007 57.02103247 326.60285901 57 320 C53.9975939 320 52.10776635 321.47287005 49.49609375 322.9296875 Z " fill="#3A3F58" transform="translate(333,36)"/>
<path d="" fill="#3A3F58" transform="translate(0,0)"/>
</svg>
